<svg width="159" height="151" viewBox="0 0 159 151" fill="none" xmlns="http://www.w3.org/2000/svg">
<path d="M150.649 75.2143C150.649 112.263 118.962 142.929 79.0747 142.929C39.1869 142.929 7.5 112.263 7.5 75.2143C7.5 38.166 39.1869 7.5 79.0747 7.5C118.962 7.5 150.649 38.166 150.649 75.2143Z" stroke="#072424" stroke-width="15"/>
<path d="M147.098 54.1512C150.49 63.9544 151.468 74.3552 149.964 84.5607C148.46 94.7672 144.51 104.535 138.39 113.107C132.269 121.682 124.137 128.838 114.597 133.999C105.055 139.16 94.3742 142.179 83.3779 142.806C72.3816 143.433 61.3892 141.649 51.2533 137.602C41.1184 133.556 32.1287 127.364 24.9607 119.53C17.7942 111.698 12.6387 102.434 9.86155 92.4623C7.0848 82.492 6.75244 72.0558 8.88734 61.9487" stroke="#0FE1C2" stroke-width="15"/>
<path d="M56.1364 86.3182C55.1818 86.303 54.2273 86.1212 53.2727 85.7727C52.3182 85.4242 51.447 84.8371 50.6591 84.0114C49.8712 83.178 49.2386 82.053 48.7614 80.6364C48.2841 79.2121 48.0455 77.4242 48.0455 75.2727C48.0455 73.2121 48.2386 71.3864 48.625 69.7955C49.0114 68.197 49.572 66.8523 50.3068 65.7614C51.0417 64.6629 51.928 63.8295 52.9659 63.2614C54.0114 62.6932 55.1894 62.4091 56.5 62.4091C57.803 62.4091 58.9621 62.6705 59.9773 63.1932C61 63.7083 61.8333 64.428 62.4773 65.3523C63.1212 66.2765 63.5379 67.3409 63.7273 68.5455H60.9545C60.697 67.5 60.197 66.6326 59.4545 65.9432C58.7121 65.2538 57.7273 64.9091 56.5 64.9091C54.697 64.9091 53.2765 65.6932 52.2386 67.2614C51.2083 68.8295 50.6894 71.0303 50.6818 73.8636H50.8636C51.2879 73.2197 51.7917 72.6705 52.375 72.2159C52.9659 71.7538 53.6174 71.3977 54.3295 71.1477C55.0417 70.8977 55.7955 70.7727 56.5909 70.7727C57.9242 70.7727 59.1439 71.1061 60.25 71.7727C61.3561 72.4318 62.2424 73.3447 62.9091 74.5114C63.5758 75.6705 63.9091 77 63.9091 78.5C63.9091 79.9394 63.5871 81.2576 62.9432 82.4545C62.2992 83.6439 61.3939 84.5909 60.2273 85.2955C59.0682 85.9924 57.7045 86.3333 56.1364 86.3182ZM56.1364 83.8182C57.0909 83.8182 57.947 83.5795 58.7045 83.1023C59.4697 82.625 60.072 81.9848 60.5114 81.1818C60.9583 80.3788 61.1818 79.4848 61.1818 78.5C61.1818 77.5379 60.9659 76.6629 60.5341 75.875C60.1098 75.0795 59.5227 74.447 58.7727 73.9773C58.0303 73.5076 57.1818 73.2727 56.2273 73.2727C55.5076 73.2727 54.8371 73.4167 54.2159 73.7045C53.5947 73.9848 53.0492 74.3712 52.5795 74.8636C52.1174 75.3561 51.7538 75.9205 51.4886 76.5568C51.2235 77.1856 51.0909 77.8485 51.0909 78.5455C51.0909 79.4697 51.3068 80.3333 51.7386 81.1364C52.178 81.9394 52.7765 82.5871 53.5341 83.0795C54.2992 83.572 55.1667 83.8182 56.1364 83.8182ZM75.6506 86.3182C74.3172 86.3182 73.1165 86.053 72.0483 85.5227C70.9801 84.9924 70.1241 84.2652 69.4801 83.3409C68.8362 82.4167 68.4839 81.3636 68.4233 80.1818H71.1506C71.2566 81.2348 71.7339 82.1061 72.5824 82.7955C73.4384 83.4773 74.4612 83.8182 75.6506 83.8182C76.6051 83.8182 77.4536 83.5947 78.196 83.1477C78.946 82.7008 79.5331 82.0871 79.9574 81.3068C80.3892 80.5189 80.6051 79.6288 80.6051 78.6364C80.6051 77.6212 80.3816 76.7159 79.9347 75.9205C79.4953 75.1174 78.8892 74.4848 78.1165 74.0227C77.3438 73.5606 76.4612 73.3258 75.4688 73.3182C74.7566 73.3106 74.0256 73.4205 73.2756 73.6477C72.5256 73.8674 71.9081 74.1515 71.4233 74.5L68.7869 74.1818L70.196 62.7273H82.2869V65.2273H72.5597L71.7415 72.0909H71.8778C72.3551 71.7121 72.9536 71.3977 73.6733 71.1477C74.393 70.8977 75.143 70.7727 75.9233 70.7727C77.3475 70.7727 78.6165 71.1136 79.7301 71.7955C80.8513 72.4697 81.7301 73.3939 82.3665 74.5682C83.0104 75.7424 83.3324 77.0833 83.3324 78.5909C83.3324 80.0758 82.9991 81.4015 82.3324 82.5682C81.6733 83.7273 80.7642 84.6439 79.6051 85.3182C78.446 85.9848 77.1278 86.3182 75.6506 86.3182ZM99.7102 81.6364V80.4091C99.7102 79.5606 99.8845 78.7841 100.233 78.0795C100.589 77.3674 101.104 76.7992 101.778 76.375C102.46 75.9432 103.286 75.7273 104.256 75.7273C105.241 75.7273 106.066 75.9432 106.733 76.375C107.4 76.7992 107.903 77.3674 108.244 78.0795C108.585 78.7841 108.756 79.5606 108.756 80.4091V81.6364C108.756 82.4848 108.581 83.2652 108.233 83.9773C107.892 84.6818 107.384 85.25 106.71 85.6818C106.044 86.1061 105.225 86.3182 104.256 86.3182C103.271 86.3182 102.441 86.1061 101.767 85.6818C101.093 85.25 100.581 84.6818 100.233 83.9773C99.8845 83.2652 99.7102 82.4848 99.7102 81.6364ZM102.028 80.4091V81.6364C102.028 82.3409 102.195 82.9735 102.528 83.5341C102.862 84.0871 103.438 84.3636 104.256 84.3636C105.051 84.3636 105.612 84.0871 105.938 83.5341C106.271 82.9735 106.438 82.3409 106.438 81.6364V80.4091C106.438 79.7045 106.278 79.0758 105.96 78.5227C105.642 77.9621 105.074 77.6818 104.256 77.6818C103.46 77.6818 102.888 77.9621 102.54 78.5227C102.199 79.0758 102.028 79.7045 102.028 80.4091ZM88.1193 68.3182V67.0909C88.1193 66.2424 88.2936 65.4659 88.642 64.7614C88.9981 64.0492 89.5133 63.4811 90.1875 63.0568C90.8693 62.625 91.6951 62.4091 92.6648 62.4091C93.6496 62.4091 94.4754 62.625 95.142 63.0568C95.8087 63.4811 96.3125 64.0492 96.6534 64.7614C96.9943 65.4659 97.1648 66.2424 97.1648 67.0909V68.3182C97.1648 69.1667 96.9905 69.947 96.642 70.6591C96.3011 71.3636 95.7936 71.9318 95.1193 72.3636C94.4527 72.7879 93.6345 73 92.6648 73C91.6799 73 90.8504 72.7879 90.1761 72.3636C89.5019 71.9318 88.9905 71.3636 88.642 70.6591C88.2936 69.947 88.1193 69.1667 88.1193 68.3182ZM90.4375 67.0909V68.3182C90.4375 69.0227 90.6042 69.6553 90.9375 70.2159C91.2708 70.7689 91.8466 71.0455 92.6648 71.0455C93.4602 71.0455 94.0208 70.7689 94.3466 70.2159C94.6799 69.6553 94.8466 69.0227 94.8466 68.3182V67.0909C94.8466 66.3864 94.6875 65.7576 94.3693 65.2045C94.0511 64.6439 93.483 64.3636 92.6648 64.3636C91.8693 64.3636 91.2973 64.6439 90.9489 65.2045C90.608 65.7576 90.4375 66.3864 90.4375 67.0909ZM88.983 86L104.983 62.7273H107.574L91.5739 86H88.983Z" fill="white"/>
</svg>
