<svg width="159" height="152" viewBox="0 0 159 152" fill="none" xmlns="http://www.w3.org/2000/svg">
<path d="M151.376 75.8215C151.376 112.87 119.689 143.536 79.8014 143.536C39.9136 143.536 8.22665 112.87 8.22665 75.8215C8.22665 38.7732 39.9136 8.10718 79.8014 8.10718C119.689 8.10718 151.376 38.7732 151.376 75.8215Z" stroke="#072424" stroke-width="15"/>
<path d="M79.9173 8.10727C91.2747 8.12467 102.452 10.6994 112.532 15.6042C122.611 20.5084 131.29 27.594 137.881 36.2526C144.471 44.9091 148.792 54.897 150.522 65.3945C152.252 75.8909 151.347 86.6298 147.873 96.7429C144.399 106.858 138.445 116.083 130.465 123.649C122.484 131.216 112.704 136.906 101.912 140.223C91.1197 143.54 79.645 144.383 68.4342 142.676C57.2237 140.97 46.6223 136.767 37.4931 130.437" stroke="#0FE1C2" stroke-width="15"/>
<path d="M66.1364 89.3182C65.1818 89.303 64.2273 89.1212 63.2727 88.7727C62.3182 88.4242 61.447 87.8371 60.6591 87.0114C59.8712 86.178 59.2386 85.053 58.7614 83.6364C58.2841 82.2121 58.0455 80.4242 58.0455 78.2727C58.0455 76.2121 58.2386 74.3864 58.625 72.7955C59.0114 71.197 59.572 69.8523 60.3068 68.7614C61.0417 67.6629 61.928 66.8295 62.9659 66.2614C64.0114 65.6932 65.1894 65.4091 66.5 65.4091C67.803 65.4091 68.9621 65.6705 69.9773 66.1932C71 66.7083 71.8333 67.428 72.4773 68.3523C73.1212 69.2765 73.5379 70.3409 73.7273 71.5455H70.9545C70.697 70.5 70.197 69.6326 69.4545 68.9432C68.7121 68.2538 67.7273 67.9091 66.5 67.9091C64.697 67.9091 63.2765 68.6932 62.2386 70.2614C61.2083 71.8295 60.6894 74.0303 60.6818 76.8636H60.8636C61.2879 76.2197 61.7917 75.6705 62.375 75.2159C62.9659 74.7538 63.6174 74.3977 64.3295 74.1477C65.0417 73.8977 65.7955 73.7727 66.5909 73.7727C67.9242 73.7727 69.1439 74.1061 70.25 74.7727C71.3561 75.4318 72.2424 76.3447 72.9091 77.5114C73.5758 78.6705 73.9091 80 73.9091 81.5C73.9091 82.9394 73.5871 84.2576 72.9432 85.4545C72.2992 86.6439 71.3939 87.5909 70.2273 88.2955C69.0682 88.9924 67.7045 89.3333 66.1364 89.3182ZM66.1364 86.8182C67.0909 86.8182 67.947 86.5795 68.7045 86.1023C69.4697 85.625 70.072 84.9848 70.5114 84.1818C70.9583 83.3788 71.1818 82.4848 71.1818 81.5C71.1818 80.5379 70.9659 79.6629 70.5341 78.875C70.1098 78.0795 69.5227 77.447 68.7727 76.9773C68.0303 76.5076 67.1818 76.2727 66.2273 76.2727C65.5076 76.2727 64.8371 76.4167 64.2159 76.7045C63.5947 76.9848 63.0492 77.3712 62.5795 77.8636C62.1174 78.3561 61.7538 78.9205 61.4886 79.5568C61.2235 80.1856 61.0909 80.8485 61.0909 81.5455C61.0909 82.4697 61.3068 83.3333 61.7386 84.1364C62.178 84.9394 62.7765 85.5871 63.5341 86.0795C64.2992 86.572 65.1667 86.8182 66.1364 86.8182ZM85.9688 89.3182C84.2566 89.3182 82.7983 88.8523 81.5938 87.9205C80.3892 86.9811 79.4688 85.6212 78.8324 83.8409C78.196 82.053 77.8778 79.8939 77.8778 77.3636C77.8778 74.8485 78.196 72.7008 78.8324 70.9205C79.4763 69.1326 80.4006 67.7689 81.6051 66.8295C82.8172 65.8826 84.2718 65.4091 85.9688 65.4091C87.6657 65.4091 89.1165 65.8826 90.321 66.8295C91.5331 67.7689 92.4574 69.1326 93.0938 70.9205C93.7377 72.7008 94.0597 74.8485 94.0597 77.3636C94.0597 79.8939 93.7415 82.053 93.1051 83.8409C92.4688 85.6212 91.5483 86.9811 90.3438 87.9205C89.1392 88.8523 87.6809 89.3182 85.9688 89.3182ZM85.9688 86.8182C87.6657 86.8182 88.9839 86 89.9233 84.3636C90.8627 82.7273 91.3324 80.3939 91.3324 77.3636C91.3324 75.3485 91.1165 73.6326 90.6847 72.2159C90.2604 70.7992 89.6468 69.7197 88.8438 68.9773C88.0483 68.2348 87.09 67.8636 85.9688 67.8636C84.2869 67.8636 82.9725 68.6932 82.0256 70.3523C81.0786 72.0038 80.6051 74.3409 80.6051 77.3636C80.6051 79.3788 80.8172 81.0909 81.2415 82.5C81.6657 83.9091 82.2756 84.9811 83.071 85.7159C83.8741 86.4508 84.84 86.8182 85.9688 86.8182ZM110.241 84.6364V83.4091C110.241 82.5606 110.416 81.7841 110.764 81.0795C111.12 80.3674 111.635 79.7992 112.31 79.375C112.991 78.9432 113.817 78.7273 114.787 78.7273C115.772 78.7273 116.598 78.9432 117.264 79.375C117.931 79.7992 118.435 80.3674 118.776 81.0795C119.116 81.7841 119.287 82.5606 119.287 83.4091V84.6364C119.287 85.4848 119.113 86.2652 118.764 86.9773C118.423 87.6818 117.916 88.25 117.241 88.6818C116.575 89.1061 115.757 89.3182 114.787 89.3182C113.802 89.3182 112.973 89.1061 112.298 88.6818C111.624 88.25 111.113 87.6818 110.764 86.9773C110.416 86.2652 110.241 85.4848 110.241 84.6364ZM112.56 83.4091V84.6364C112.56 85.3409 112.726 85.9735 113.06 86.5341C113.393 87.0871 113.969 87.3636 114.787 87.3636C115.582 87.3636 116.143 87.0871 116.469 86.5341C116.802 85.9735 116.969 85.3409 116.969 84.6364V83.4091C116.969 82.7045 116.81 82.0758 116.491 81.5227C116.173 80.9621 115.605 80.6818 114.787 80.6818C113.991 80.6818 113.42 80.9621 113.071 81.5227C112.73 82.0758 112.56 82.7045 112.56 83.4091ZM98.6506 71.3182V70.0909C98.6506 69.2424 98.8248 68.4659 99.1733 67.7614C99.5294 67.0492 100.045 66.4811 100.719 66.0568C101.401 65.625 102.226 65.4091 103.196 65.4091C104.181 65.4091 105.007 65.625 105.673 66.0568C106.34 66.4811 106.844 67.0492 107.185 67.7614C107.526 68.4659 107.696 69.2424 107.696 70.0909V71.3182C107.696 72.1667 107.522 72.947 107.173 73.6591C106.832 74.3636 106.325 74.9318 105.651 75.3636C104.984 75.7879 104.166 76 103.196 76C102.211 76 101.382 75.7879 100.707 75.3636C100.033 74.9318 99.5218 74.3636 99.1733 73.6591C98.8248 72.947 98.6506 72.1667 98.6506 71.3182ZM100.969 70.0909V71.3182C100.969 72.0227 101.135 72.6553 101.469 73.2159C101.802 73.7689 102.378 74.0455 103.196 74.0455C103.991 74.0455 104.552 73.7689 104.878 73.2159C105.211 72.6553 105.378 72.0227 105.378 71.3182V70.0909C105.378 69.3864 105.219 68.7576 104.901 68.2045C104.582 67.6439 104.014 67.3636 103.196 67.3636C102.401 67.3636 101.829 67.6439 101.48 68.2045C101.139 68.7576 100.969 69.3864 100.969 70.0909ZM99.5142 89L115.514 65.7273H118.105L102.105 89H99.5142Z" fill="white"/>
</svg>
