<svg width="159" height="152" viewBox="0 0 159 152" fill="none" xmlns="http://www.w3.org/2000/svg">
<path d="M151.5 75.8215C151.5 112.87 119.813 143.536 79.9253 143.536C40.0375 143.536 8.35059 112.87 8.35059 75.8215C8.35059 38.7732 40.0375 8.10718 79.9253 8.10718C119.813 8.10718 151.5 38.7732 151.5 75.8215Z" stroke="#072424" stroke-width="15"/>
<path d="M83.0786 8.17294C98.2663 8.80676 112.813 13.9978 124.637 22.9482C136.457 31.8947 144.933 44.1211 148.928 57.8344C152.921 71.5424 152.252 86.096 147.007 99.4318C141.759 112.774 132.177 124.264 119.561 132.203" stroke="#0FE1C2" stroke-width="15"/>
<path d="M44.8874 80.3202V78.002L55.1147 61.8202H56.7965V65.4111H55.6601L47.9329 77.6384V77.8202H61.7056V80.3202H44.8874ZM55.842 85.0929V79.6156V78.5361V61.8202H58.5238V85.0929H55.842ZM73.555 85.4111C71.8429 85.4111 70.3846 84.9452 69.18 84.0134C67.9755 83.074 67.055 81.7141 66.4187 79.9338C65.7823 78.1459 65.4641 75.9868 65.4641 73.4565C65.4641 70.9414 65.7823 68.7937 66.4187 67.0133C67.0626 65.2255 67.9868 63.8618 69.1914 62.9224C70.4035 61.9755 71.8581 61.502 73.555 61.502C75.252 61.502 76.7028 61.9755 77.9073 62.9224C79.1194 63.8618 80.0437 65.2255 80.68 67.0133C81.324 68.7937 81.6459 70.9414 81.6459 73.4565C81.6459 75.9868 81.3278 78.1459 80.6914 79.9338C80.055 81.7141 79.1346 83.074 77.93 84.0134C76.7255 84.9452 75.2671 85.4111 73.555 85.4111ZM73.555 82.9111C75.252 82.9111 76.5702 82.0929 77.5096 80.4565C78.449 78.8202 78.9187 76.4868 78.9187 73.4565C78.9187 71.4414 78.7028 69.7255 78.2709 68.3088C77.8467 66.8921 77.2331 65.8126 76.43 65.0702C75.6346 64.3277 74.6762 63.9565 73.555 63.9565C71.8732 63.9565 70.5588 64.7861 69.6118 66.4452C68.6649 68.0967 68.1914 70.4338 68.1914 73.4565C68.1914 75.4717 68.4035 77.1838 68.8278 78.5929C69.252 80.002 69.8618 81.074 70.6573 81.8088C71.4603 82.5437 72.4262 82.9111 73.555 82.9111ZM97.8278 80.7293V79.502C97.8278 78.6535 98.002 77.877 98.3505 77.1724C98.7065 76.4603 99.2217 75.8921 99.8959 75.4679C100.578 75.0361 101.404 74.8202 102.373 74.8202C103.358 74.8202 104.184 75.0361 104.85 75.4679C105.517 75.8921 106.021 76.4603 106.362 77.1724C106.703 77.877 106.873 78.6535 106.873 79.502V80.7293C106.873 81.5777 106.699 82.358 106.35 83.0702C106.01 83.7747 105.502 84.3429 104.828 84.7747C104.161 85.199 103.343 85.4111 102.373 85.4111C101.388 85.4111 100.559 85.199 99.8846 84.7747C99.2103 84.3429 98.699 83.7747 98.3505 83.0702C98.002 82.358 97.8278 81.5777 97.8278 80.7293ZM100.146 79.502V80.7293C100.146 81.4338 100.313 82.0664 100.646 82.627C100.979 83.18 101.555 83.4565 102.373 83.4565C103.169 83.4565 103.729 83.18 104.055 82.627C104.388 82.0664 104.555 81.4338 104.555 80.7293V79.502C104.555 78.7974 104.396 78.1687 104.078 77.6156C103.76 77.055 103.191 76.7747 102.373 76.7747C101.578 76.7747 101.006 77.055 100.657 77.6156C100.316 78.1687 100.146 78.7974 100.146 79.502ZM86.2368 67.4111V66.1838C86.2368 65.3353 86.4111 64.5588 86.7596 63.8543C87.1156 63.1421 87.6308 62.574 88.305 62.1497C88.9868 61.7179 89.8126 61.502 90.7823 61.502C91.7671 61.502 92.5929 61.7179 93.2596 62.1497C93.9262 62.574 94.43 63.1421 94.7709 63.8543C95.1118 64.5588 95.2823 65.3353 95.2823 66.1838V67.4111C95.2823 68.2596 95.1081 69.0399 94.7596 69.752C94.4187 70.4565 93.9111 71.0247 93.2368 71.4565C92.5702 71.8808 91.752 72.0929 90.7823 72.0929C89.7974 72.0929 88.9679 71.8808 88.2937 71.4565C87.6194 71.0247 87.1081 70.4565 86.7596 69.752C86.4111 69.0399 86.2368 68.2596 86.2368 67.4111ZM88.555 66.1838V67.4111C88.555 68.1156 88.7217 68.7482 89.055 69.3088C89.3884 69.8618 89.9641 70.1383 90.7823 70.1383C91.5778 70.1383 92.1384 69.8618 92.4641 69.3088C92.7974 68.7482 92.9641 68.1156 92.9641 67.4111V66.1838C92.9641 65.4793 92.805 64.8505 92.4868 64.2974C92.1687 63.7368 91.6005 63.4565 90.7823 63.4565C89.9868 63.4565 89.4149 63.7368 89.0664 64.2974C88.7255 64.8505 88.555 65.4793 88.555 66.1838ZM87.1005 85.0929L103.1 61.8202H105.691L89.6914 85.0929H87.1005Z" fill="white"/>
</svg>
