<svg width="45" height="45" viewBox="0 0 45 45" fill="none" xmlns="http://www.w3.org/2000/svg">
<path opacity="0.5" d="M38.6235 30.7164C37.0991 30.3475 35.6807 29.6312 34.4789 28.6235C33.2772 27.6157 32.3246 26.3437 31.6958 24.9069L31.6868 24.8867C31.553 24.6673 31.4688 24.4213 31.4401 24.166C31.4113 23.9106 31.4387 23.6521 31.5203 23.4084C31.8353 22.6614 32.886 22.3284 33.5813 22.1079C33.7545 22.0539 33.9188 21.9999 34.047 21.9504C35.3048 21.4554 35.559 20.9379 35.5545 20.5959C35.5214 20.3812 35.4248 20.1813 35.2773 20.0217C35.1298 19.8622 34.938 19.7503 34.7265 19.7004L34.7175 19.6959C34.5316 19.6212 34.3329 19.583 34.1325 19.5834C33.9546 19.5805 33.7781 19.6158 33.615 19.6869C33.124 19.9353 32.5888 20.0844 32.04 20.1257C31.7246 20.1326 31.4166 20.0291 31.1693 19.8332L31.221 18.9579L31.2278 18.8522C31.5449 16.6319 31.4102 14.3704 30.8318 12.2034C30.1492 10.6485 29.0239 9.32899 27.5963 8.40949C26.1686 7.49 24.5018 7.01123 22.8038 7.03293L22.14 7.03743C20.4439 7.01664 18.7793 7.49594 17.354 8.41548C15.9286 9.33503 14.8057 10.6541 14.1255 12.2079C13.5468 14.3717 13.4113 16.6302 13.7273 18.8477L13.788 19.8332C13.5145 20.0469 13.1712 20.1512 12.825 20.1257C12.2434 20.1014 11.6739 19.9517 11.1555 19.6869C11.0282 19.6304 10.8899 19.6027 10.7505 19.6059C10.4644 19.5947 10.1819 19.6733 9.94265 19.8307C9.70339 19.988 9.51934 20.2163 9.41628 20.4834C9.28128 21.1922 10.2938 21.7074 10.9103 21.9504C11.0385 22.0022 11.2028 22.0539 11.376 22.1079C12.0713 22.3284 13.1198 22.6614 13.437 23.4084C13.6013 23.9034 13.5405 24.4434 13.2683 24.8889L13.2593 24.9069C12.8048 25.8969 12.213 26.8194 11.4998 27.6452C10.2037 29.2576 8.36941 30.3481 6.33378 30.7164C6.23765 30.7324 6.15076 30.7832 6.08974 30.8591C6.02872 30.9351 5.99785 31.0309 6.00303 31.1282C6.00753 31.2024 6.02553 31.2744 6.05478 31.3419C6.34503 32.0192 7.79853 32.5794 10.26 32.9574C10.4895 32.9934 10.5863 33.3692 10.7213 33.9834C10.7753 34.2309 10.8293 34.4852 10.908 34.7484C10.9598 34.9892 11.187 35.1534 11.4345 35.1242C11.6694 35.1113 11.9028 35.0782 12.132 35.0252C13.1747 34.7811 14.2557 34.7482 15.3113 34.9284C16.2405 35.1647 17.1045 35.6034 17.8403 36.2199C19.0817 37.2799 20.6419 37.8945 22.2728 37.9659C22.3268 37.9659 22.3808 37.9659 22.4348 37.9592C22.5023 37.9637 22.5923 37.9659 22.6868 37.9659C24.3175 37.8938 25.8775 37.2793 27.1193 36.2199C27.855 35.6057 28.7168 35.1624 29.646 34.9284C30.087 34.8542 30.5303 34.8159 30.978 34.8159C31.5968 34.8182 32.2155 34.8834 32.823 35.0117C33.0525 35.0612 33.2888 35.0904 33.5228 35.1017H33.561C33.6732 35.1111 33.785 35.0789 33.875 35.0113C33.965 34.9437 34.027 34.8453 34.0493 34.7349C34.1258 34.4762 34.182 34.2287 34.236 33.9767C34.371 33.3647 34.4678 32.9912 34.6973 32.9552C37.1588 32.5749 38.6123 32.0169 38.9003 31.3442C38.9302 31.2758 38.9477 31.2027 38.952 31.1282C38.9573 31.0312 38.9267 30.9357 38.8662 30.8598C38.8056 30.7839 38.7192 30.7328 38.6235 30.7164Z" fill="#EFFF34"/>
<path d="M34.875 0H10.125C7.43968 0 4.86435 1.06674 2.96554 2.96554C1.06674 4.86435 0 7.43968 0 10.125V34.875C0 37.5603 1.06674 40.1357 2.96554 42.0345C4.86435 43.9333 7.43968 45 10.125 45H34.875C37.5603 45 40.1357 43.9333 42.0345 42.0345C43.9333 40.1357 45 37.5603 45 34.875V10.125C45 7.43968 43.9333 4.86435 42.0345 2.96554C40.1357 1.06674 37.5603 0 34.875 0ZM38.9025 31.3425C38.6123 32.0175 37.1588 32.5755 34.6973 32.9557C34.4678 32.9917 34.3688 33.3652 34.236 33.9772C34.182 34.2292 34.1235 34.4767 34.0493 34.7355C34.0265 34.8455 33.9643 34.9433 33.8743 35.0104C33.7844 35.0776 33.6729 35.1095 33.561 35.1H33.5228C33.288 35.0909 33.0546 35.0607 32.8253 35.01C32.2176 34.8834 31.5987 34.8186 30.978 34.8165C30.5302 34.8165 30.087 34.8548 29.646 34.929C28.7168 35.1652 27.855 35.604 27.1192 36.2205C25.8774 37.2799 24.3175 37.8944 22.6868 37.9665C22.5923 37.9665 22.5023 37.9643 22.4348 37.9598C22.3801 37.9644 22.3253 37.9666 22.2705 37.9665C20.6396 37.8951 19.0795 37.2805 17.838 36.2205C17.1032 35.6061 16.2397 35.1647 15.3112 34.929C14.8711 34.8552 14.4256 34.8175 13.9792 34.8165C13.3582 34.8233 12.7418 34.893 12.1343 35.0257C11.9043 35.0788 11.6702 35.112 11.4345 35.1247C11.3158 35.1387 11.1961 35.1079 11.0988 35.0384C11.0014 34.969 10.9334 34.8658 10.908 34.749C10.8364 34.4964 10.7741 34.2412 10.7212 33.984C10.5862 33.3698 10.4895 32.994 10.26 32.958C7.7985 32.58 6.345 32.0198 6.05475 31.3425C6.02506 31.2749 6.00754 31.2025 6.003 31.1287C5.99782 31.0314 6.02869 30.9356 6.08971 30.8597C6.15073 30.7837 6.23762 30.7329 6.33375 30.717C8.36937 30.3487 10.2037 29.2581 11.4998 27.6458C12.213 26.82 12.8048 25.8997 13.2615 24.9075L13.2683 24.8895C13.4026 24.6699 13.4872 24.4237 13.5164 24.1679C13.5455 23.9122 13.5184 23.6532 13.437 23.409C13.122 22.662 12.0713 22.329 11.376 22.1085C11.2188 22.0619 11.0635 22.0093 10.9102 21.951C10.2937 21.708 9.28125 21.1928 9.41625 20.484C9.51931 20.2168 9.70336 19.9886 9.94262 19.8312C10.1819 19.6739 10.4644 19.5953 10.7505 19.6065C10.8898 19.6033 11.0281 19.631 11.1555 19.6875C11.673 19.953 12.2445 20.1038 12.825 20.1285C13.1715 20.1532 13.5147 20.0481 13.788 19.8337C13.7693 19.5052 13.749 19.1767 13.7273 18.8482C13.4121 16.6307 13.5475 14.3724 14.1255 12.2085C14.8057 10.6546 15.9286 9.3356 17.3539 8.41605C18.7793 7.4965 20.4439 7.0172 22.14 7.038L22.8038 7.0335C24.5018 7.0118 26.1686 7.49056 27.5962 8.41006C29.0239 9.32955 30.1492 10.6491 30.8318 12.204C31.4102 14.371 31.5449 16.6324 31.2277 18.8527L31.221 18.9585L31.1693 19.8337C31.4168 20.0295 31.725 20.133 32.0423 20.1262C32.591 20.085 33.1262 19.9359 33.6172 19.6875C33.779 19.617 33.9538 19.5817 34.1303 19.584C34.3328 19.584 34.5308 19.6222 34.7175 19.6965L34.7265 19.701C34.9376 19.7513 35.1289 19.8633 35.276 20.0228C35.423 20.1823 35.5192 20.3821 35.5522 20.5965C35.559 20.9408 35.3047 21.4537 34.047 21.951C33.9188 22.0005 33.7545 22.0545 33.5813 22.1085C32.8838 22.329 31.8353 22.662 31.5203 23.409C31.4387 23.6527 31.4113 23.9112 31.4401 24.1665C31.4688 24.4219 31.553 24.6678 31.6868 24.8872L31.6957 24.9075C32.3246 26.3443 33.2771 27.6163 34.4789 28.624C35.6806 29.6318 37.0991 30.3481 38.6235 30.717C38.7192 30.7334 38.8056 30.7844 38.8661 30.8603C38.9267 30.9363 38.9573 31.0318 38.952 31.1287C38.9476 31.2032 38.9301 31.2764 38.9003 31.3447L38.9025 31.3425Z" fill="#EFFF34"/>
</svg>
