<svg width="159" height="151" viewBox="0 0 159 151" fill="none" xmlns="http://www.w3.org/2000/svg">
<path d="M150.711 75.2143C150.711 112.263 119.024 142.929 79.1367 142.929C39.2489 142.929 7.56198 112.263 7.56198 75.2143C7.56198 38.166 39.2489 7.5 79.1367 7.5C119.024 7.5 150.711 38.166 150.711 75.2143Z" stroke="#072424" stroke-width="15"/>
<path d="M78.8822 7.50043C94.0851 7.44927 108.88 11.9795 121.147 20.3934C133.408 28.8041 142.49 40.644 147.166 54.1694C151.84 67.6889 151.894 82.2558 147.321 95.8053C142.746 109.361 133.753 121.26 121.556 129.752C109.354 138.247 94.5941 142.877 79.3912 142.928C64.1883 142.979 49.3929 138.449 37.1268 130.035C24.8654 121.625 15.7834 109.785 11.1075 96.2592C6.43358 82.7397 6.37959 68.1728 10.9524 54.6233" stroke="#0FE1C2" stroke-width="15"/>
<path d="M60.8636 86.3182C59.303 86.3182 57.9242 86.0417 56.7273 85.4886C55.5379 84.928 54.6098 84.1591 53.9432 83.1818C53.2765 82.197 52.947 81.0758 52.9545 79.8182C52.947 78.8333 53.1402 77.9242 53.5341 77.0909C53.928 76.25 54.4659 75.5492 55.1477 74.9886C55.8371 74.4205 56.6061 74.0606 57.4545 73.9091V73.7727C56.3409 73.4848 55.4545 72.8598 54.7955 71.8977C54.1364 70.928 53.8106 69.8258 53.8182 68.5909C53.8106 67.4091 54.1098 66.3523 54.7159 65.4205C55.322 64.4886 56.1553 63.7538 57.2159 63.2159C58.2841 62.678 59.5 62.4091 60.8636 62.4091C62.2121 62.4091 63.4167 62.678 64.4773 63.2159C65.5379 63.7538 66.3712 64.4886 66.9773 65.4205C67.5909 66.3523 67.9015 67.4091 67.9091 68.5909C67.9015 69.8258 67.5644 70.928 66.8977 71.8977C66.2386 72.8598 65.3636 73.4848 64.2727 73.7727V73.9091C65.1136 74.0606 65.8712 74.4205 66.5455 74.9886C67.2197 75.5492 67.7576 76.25 68.1591 77.0909C68.5606 77.9242 68.7652 78.8333 68.7727 79.8182C68.7652 81.0758 68.4242 82.197 67.75 83.1818C67.0833 84.1591 66.1553 84.928 64.9659 85.4886C63.7841 86.0417 62.4167 86.3182 60.8636 86.3182ZM60.8636 83.8182C61.9167 83.8182 62.8258 83.6477 63.5909 83.3068C64.3561 82.9659 64.947 82.4848 65.3636 81.8636C65.7803 81.2424 65.9924 80.5152 66 79.6818C65.9924 78.803 65.7652 78.0265 65.3182 77.3523C64.8712 76.678 64.2614 76.1477 63.4886 75.7614C62.7235 75.375 61.8485 75.1818 60.8636 75.1818C59.8712 75.1818 58.9848 75.375 58.2045 75.7614C57.4318 76.1477 56.822 76.678 56.375 77.3523C55.9356 78.0265 55.7197 78.803 55.7273 79.6818C55.7197 80.5152 55.9205 81.2424 56.3295 81.8636C56.7462 82.4848 57.3409 82.9659 58.1136 83.3068C58.8864 83.6477 59.803 83.8182 60.8636 83.8182ZM60.8636 72.7727C61.697 72.7727 62.4356 72.6061 63.0795 72.2727C63.7311 71.9394 64.2424 71.4735 64.6136 70.875C64.9848 70.2765 65.1742 69.5758 65.1818 68.7727C65.1742 67.9848 64.9886 67.2992 64.625 66.7159C64.2614 66.125 63.7576 65.6705 63.1136 65.3523C62.4697 65.0265 61.7197 64.8636 60.8636 64.8636C59.9924 64.8636 59.2311 65.0265 58.5795 65.3523C57.928 65.6705 57.4242 66.125 57.0682 66.7159C56.7121 67.2992 56.5379 67.9848 56.5455 68.7727C56.5379 69.5758 56.7159 70.2765 57.0795 70.875C57.4508 71.4735 57.9621 71.9394 58.6136 72.2727C59.2652 72.6061 60.0152 72.7727 60.8636 72.7727ZM80.7188 86.3182C79.0066 86.3182 77.5483 85.8523 76.3438 84.9205C75.1392 83.9811 74.2188 82.6212 73.5824 80.8409C72.946 79.053 72.6278 76.8939 72.6278 74.3636C72.6278 71.8485 72.946 69.7008 73.5824 67.9205C74.2263 66.1326 75.1506 64.7689 76.3551 63.8295C77.5672 62.8826 79.0218 62.4091 80.7188 62.4091C82.4157 62.4091 83.8665 62.8826 85.071 63.8295C86.2831 64.7689 87.2074 66.1326 87.8438 67.9205C88.4877 69.7008 88.8097 71.8485 88.8097 74.3636C88.8097 76.8939 88.4915 79.053 87.8551 80.8409C87.2188 82.6212 86.2983 83.9811 85.0938 84.9205C83.8892 85.8523 82.4309 86.3182 80.7188 86.3182ZM80.7188 83.8182C82.4157 83.8182 83.7339 83 84.6733 81.3636C85.6127 79.7273 86.0824 77.3939 86.0824 74.3636C86.0824 72.3485 85.8665 70.6326 85.4347 69.2159C85.0104 67.7992 84.3968 66.7197 83.5938 65.9773C82.7983 65.2348 81.84 64.8636 80.7188 64.8636C79.0369 64.8636 77.7225 65.6932 76.7756 67.3523C75.8286 69.0038 75.3551 71.3409 75.3551 74.3636C75.3551 76.3788 75.5672 78.0909 75.9915 79.5C76.4157 80.9091 77.0256 81.9811 77.821 82.7159C78.6241 83.4508 79.59 83.8182 80.7188 83.8182ZM104.991 81.6364V80.4091C104.991 79.5606 105.166 78.7841 105.514 78.0795C105.87 77.3674 106.385 76.7992 107.06 76.375C107.741 75.9432 108.567 75.7273 109.537 75.7273C110.522 75.7273 111.348 75.9432 112.014 76.375C112.681 76.7992 113.185 77.3674 113.526 78.0795C113.866 78.7841 114.037 79.5606 114.037 80.4091V81.6364C114.037 82.4848 113.863 83.2652 113.514 83.9773C113.173 84.6818 112.666 85.25 111.991 85.6818C111.325 86.1061 110.507 86.3182 109.537 86.3182C108.552 86.3182 107.723 86.1061 107.048 85.6818C106.374 85.25 105.863 84.6818 105.514 83.9773C105.166 83.2652 104.991 82.4848 104.991 81.6364ZM107.31 80.4091V81.6364C107.31 82.3409 107.476 82.9735 107.81 83.5341C108.143 84.0871 108.719 84.3636 109.537 84.3636C110.332 84.3636 110.893 84.0871 111.219 83.5341C111.552 82.9735 111.719 82.3409 111.719 81.6364V80.4091C111.719 79.7045 111.56 79.0758 111.241 78.5227C110.923 77.9621 110.355 77.6818 109.537 77.6818C108.741 77.6818 108.17 77.9621 107.821 78.5227C107.48 79.0758 107.31 79.7045 107.31 80.4091ZM93.4006 68.3182V67.0909C93.4006 66.2424 93.5748 65.4659 93.9233 64.7614C94.2794 64.0492 94.7945 63.4811 95.4688 63.0568C96.1506 62.625 96.9763 62.4091 97.946 62.4091C98.9309 62.4091 99.7566 62.625 100.423 63.0568C101.09 63.4811 101.594 64.0492 101.935 64.7614C102.276 65.4659 102.446 66.2424 102.446 67.0909V68.3182C102.446 69.1667 102.272 69.947 101.923 70.6591C101.582 71.3636 101.075 71.9318 100.401 72.3636C99.7339 72.7879 98.9157 73 97.946 73C96.9612 73 96.1316 72.7879 95.4574 72.3636C94.7831 71.9318 94.2718 71.3636 93.9233 70.6591C93.5748 69.947 93.4006 69.1667 93.4006 68.3182ZM95.7188 67.0909V68.3182C95.7188 69.0227 95.8854 69.6553 96.2188 70.2159C96.5521 70.7689 97.1278 71.0455 97.946 71.0455C98.7415 71.0455 99.3021 70.7689 99.6278 70.2159C99.9612 69.6553 100.128 69.0227 100.128 68.3182V67.0909C100.128 66.3864 99.9688 65.7576 99.6506 65.2045C99.3324 64.6439 98.7642 64.3636 97.946 64.3636C97.1506 64.3636 96.5786 64.6439 96.2301 65.2045C95.8892 65.7576 95.7188 66.3864 95.7188 67.0909ZM94.2642 86L110.264 62.7273H112.855L96.8551 86H94.2642Z" fill="white"/>
</svg>
