<svg width="45" height="35" viewBox="0 0 45 35" fill="none" xmlns="http://www.w3.org/2000/svg">
<path d="M30.9088 17.5738L42.4424 5.79918V29.214L30.9088 17.5738ZM16.0469 19.5678L20.0971 23.6991C20.7327 24.3336 21.5615 24.717 22.4672 24.717H22.4991H22.5234C23.431 24.717 24.2598 24.3314 24.9029 23.6925L24.8973 23.6969L28.9475 19.5656L41.2592 31.9902H3.74078L16.0469 19.5678ZM3.7239 3.00755H41.2817L23.2416 21.4186C23.0388 21.6072 22.7877 21.7096 22.5291 21.7095H22.5028H22.4784C22.2189 21.7099 21.967 21.6065 21.764 21.4164L21.7659 21.4186L3.7239 3.00755ZM2.55948 5.79698L14.0912 17.5716L2.55948 29.2052V5.79698ZM43.0612 0.418634C42.6111 0.154234 42.0824 0 41.5217 0H3.48577C2.9423 0.000152548 2.4063 0.148749 1.92008 0.434057L1.94071 0.42304C1.35863 0.760396 0.868438 1.28229 0.525499 1.92978C0.182559 2.57727 0.0005388 3.32454 0 4.08719L0 30.9062C0.000992673 31.9916 0.368364 33.0322 1.02151 33.7997C1.67465 34.5672 2.56021 34.9988 3.4839 35H41.5161C42.4398 34.9988 43.3254 34.5672 43.9785 33.7997C44.6316 33.0322 44.999 31.9916 45 30.9062V4.08719C45 2.48536 44.2143 1.09726 43.0705 0.429651L43.0499 0.418634H43.0612Z" fill="#0FE1C2"/>
</svg>
